<svg id="visual" viewBox="0 0 1600 1300" width="1600" height="1300" xmlns="http://www.w3.org/2000/svg" xmlns:xlink="http://www.w3.org/1999/xlink" version="1.1"><rect x="0" y="0" width="1600" height="1300" fill="var(--body)"></rect><defs><linearGradient id="grad1_0" x1="18.8%" y1="0%" x2="100%" y2="100%"><stop offset="25.38461538461538%" stop-color="#001220" stop-opacity="1"></stop><stop offset="74.61538461538461%" stop-color="#001220" stop-opacity="1"></stop></linearGradient></defs><defs><linearGradient id="grad2_0" x1="0%" y1="0%" x2="81.3%" y2="100%"><stop offset="25.38461538461538%" stop-color="#001220" stop-opacity="1"></stop><stop offset="74.61538461538461%" stop-color="#001220" stop-opacity="1"></stop></linearGradient></defs><g transform="translate(1600, 0)"><path d="M0 979.2C-111.7 911.8 -223.3 844.4 -327.2 789.9C-431.1 735.4 -527.2 693.7 -630.7 630.7C-734.3 567.7 -845.4 483.4 -904.7 374.7C-964 266.1 -971.6 133 -979.2 0L0 0Z" fill="var(--counter)"></path></g><g transform="translate(0, 1300)"><path d="M0 -979.2C134.8 -971.1 269.6 -962.9 374.7 -904.7C479.9 -846.5 555.4 -738.3 646.3 -646.3C737.2 -554.3 843.6 -478.5 901.7 -373.5C959.8 -268.5 969.5 -134.2 979.2 0L0 0Z" fill="var(--counter)"></path></g></svg>