<svg id="visual" viewBox="0 0 1600 800" width="1600" height="800" xmlns="http://www.w3.org/2000/svg" xmlns:xlink="http://www.w3.org/1999/xlink" version="1.1"><rect x="0" y="0" width="1600" height="800" fill="#fff"></rect><defs><linearGradient id="grad1_0" x1="50%" y1="0%" x2="100%" y2="100%"><stop offset="10%" stop-color="#ffffff" stop-opacity="1"></stop><stop offset="90%" stop-color="#ffffff" stop-opacity="1"></stop></linearGradient></defs><defs><linearGradient id="grad2_0" x1="0%" y1="0%" x2="50%" y2="100%"><stop offset="10%" stop-color="#ffffff" stop-opacity="1"></stop><stop offset="90%" stop-color="#ffffff" stop-opacity="1"></stop></linearGradient></defs><g transform="translate(1600, 0)"><path d="M0 640C-107 615.8 -214 591.6 -312.5 541.3C-411 491 -501.1 414.6 -554.3 320C-607.4 225.4 -623.7 112.7 -640 0L0 0Z" fill="#22a6b3"></path></g><g transform="translate(0, 800)"><path d="M0 -640C122.3 -629.2 244.6 -618.5 320 -554.3C395.4 -490 423.9 -372.3 469.4 -271C514.9 -169.7 577.5 -84.9 640 0L0 0Z" fill="#22a6b3"></path></g></svg>