<?xml version="1.0" standalone="no"?>
<!DOCTYPE svg PUBLIC "-//W3C//DTD SVG 20010904//EN"
 "http://www.w3.org/TR/2001/REC-SVG-20010904/DTD/svg10.dtd">
<svg version="1.0" xmlns="http://www.w3.org/2000/svg"
 width="640.000000pt" height="640.000000pt" viewBox="0 0 640.000000 640.000000"
 preserveAspectRatio="xMidYMid meet">

<g transform="translate(0.000000,640.000000) scale(0.100000,-0.100000)"
fill="#000000" stroke="none">
<path d="M3093 6178 c-27 -29 -78 -113 -123 -203 -8 -16 -17 -32 -20 -35 -3
-3 -14 -23 -25 -45 -11 -22 -39 -73 -62 -113 -24 -40 -43 -75 -43 -77 0 -3
-10 -22 -23 -43 -24 -38 -78 -135 -129 -232 -16 -30 -33 -59 -38 -65 -4 -5
-16 -30 -26 -55 -10 -25 -32 -65 -50 -90 -17 -25 -37 -60 -45 -79 -18 -44 -47
-97 -82 -152 -33 -51 -104 -175 -153 -269 -19 -36 -39 -72 -44 -80 -20 -30
-116 -202 -164 -292 -34 -63 -133 -241 -187 -335 -33 -58 -119 -216 -119 -219
0 -1 -20 -37 -45 -78 -25 -42 -45 -79 -45 -81 0 -3 -10 -22 -23 -43 -24 -38
-78 -135 -129 -232 -16 -30 -33 -59 -38 -65 -4 -5 -29 -50 -55 -100 -26 -49
-51 -94 -55 -100 -7 -10 -32 -53 -98 -175 -19 -36 -54 -99 -77 -140 -23 -41
-53 -95 -67 -120 -58 -106 -92 -165 -117 -209 -15 -25 -35 -62 -44 -81 -10
-19 -27 -51 -39 -70 -11 -19 -32 -57 -47 -83 -14 -26 -30 -56 -36 -65 -73
-125 -86 -154 -75 -168 11 -12 71 -14 380 -14 l368 0 36 44 c20 25 68 100 106
168 39 68 77 134 85 148 9 14 27 50 41 80 46 98 96 192 186 349 48 84 88 155
88 158 0 2 10 20 23 41 13 20 40 68 61 105 20 37 45 82 55 100 72 125 91 159
91 163 0 2 13 25 29 52 15 26 39 68 53 93 14 24 76 134 138 244 62 110 127
225 143 255 17 30 41 72 54 92 13 21 23 40 23 42 0 3 13 27 29 54 27 47 63
110 119 212 14 25 42 74 62 110 56 97 125 219 152 270 14 25 34 61 45 80 32
57 198 351 225 400 14 25 57 102 97 171 69 123 81 155 62 175 -5 5 -35 58 -66
119 -31 60 -62 116 -69 125 -8 8 -44 74 -81 145 -106 205 -133 245 -165 245
-9 0 -30 -15 -47 -32z"/>
<path d="M3711 5159 c-11 -12 -25 -35 -32 -53 -7 -17 -22 -47 -34 -66 -27 -43
-86 -153 -154 -285 -29 -54 -56 -104 -60 -110 -18 -23 -91 -166 -91 -177 0 -7
38 -80 85 -163 47 -82 85 -151 85 -152 0 -2 10 -20 23 -41 13 -20 37 -62 54
-92 32 -59 249 -443 267 -473 12 -21 -5 -38 -103 -104 -30 -20 -78 -56 -107
-79 -30 -24 -56 -44 -59 -44 -7 0 -204 -139 -251 -177 -23 -18 -44 -33 -49
-33 -4 0 -28 -15 -54 -34 -45 -33 -179 -116 -187 -116 -2 0 -14 -9 -27 -20
-12 -11 -70 -52 -128 -92 -58 -40 -188 -131 -288 -203 -101 -71 -190 -134
-199 -140 -9 -5 -50 -35 -92 -66 -41 -30 -93 -66 -115 -79 -22 -13 -44 -29
-50 -35 -5 -7 -41 -34 -80 -60 -38 -27 -74 -54 -80 -60 -5 -6 -31 -28 -57 -49
-29 -22 -50 -48 -54 -64 -3 -15 -10 -38 -15 -51 -5 -13 -8 -26 -5 -28 6 -6
158 32 231 57 28 10 68 22 90 28 68 18 277 83 335 104 30 11 66 22 80 25 14 3
30 9 35 13 14 10 166 62 295 100 58 17 123 38 145 45 22 8 94 30 160 50 117
36 177 55 320 100 39 13 124 39 190 60 66 20 145 45 176 56 30 10 63 19 73 19
9 0 27 10 40 23 20 20 41 25 132 35 60 7 118 12 129 12 20 0 55 -48 55 -77 0
-8 8 -27 19 -41 10 -15 31 -49 45 -77 34 -63 41 -74 97 -160 68 -103 117 -187
171 -294 27 -52 54 -99 61 -103 14 -9 761 -11 769 -2 9 8 -24 92 -64 165 -20
35 -47 84 -60 109 -14 25 -44 81 -68 125 -24 44 -46 85 -50 90 -4 6 -24 42
-45 80 -72 133 -98 180 -114 205 -20 31 -55 95 -76 140 -9 19 -26 46 -39 60
-29 32 -226 384 -226 404 0 9 -27 61 -59 115 -33 55 -62 109 -66 121 -3 11
-15 25 -26 30 -10 6 -19 15 -19 20 0 4 -25 52 -55 105 -30 54 -55 99 -55 100
0 2 -16 32 -36 67 -20 34 -50 88 -67 118 -16 30 -60 109 -97 175 -37 66 -82
147 -100 180 -18 33 -45 80 -58 105 -83 148 -209 374 -239 430 -70 129 -134
240 -143 245 -5 3 -18 -4 -29 -16z"/>
<path d="M752 1842 c-19 -6 -36 -38 -93 -180 -38 -96 -69 -180 -69 -188 0 -8
9 -14 19 -14 14 0 25 16 43 63 l24 62 69 0 69 0 25 -62 c24 -62 25 -63 63 -63
22 0 38 5 38 12 0 6 -30 94 -67 195 -70 189 -70 189 -121 175z m28 -146 c11
-32 17 -62 14 -67 -6 -10 -64 -12 -87 -4 -11 5 -10 18 11 76 14 38 29 66 33
62 5 -5 18 -35 29 -67z"/>
<path d="M3620 1841 c-19 -5 -31 -23 -53 -76 -16 -39 -48 -118 -73 -176 -24
-59 -44 -112 -44 -118 0 -15 35 -14 48 2 5 6 16 31 23 55 15 51 26 57 100 61
l55 2 25 -63 c23 -58 27 -63 58 -66 44 -5 52 6 36 48 -7 19 -30 80 -50 135
-81 222 -73 210 -125 196z m19 -133 c29 -87 29 -88 -29 -85 -56 2 -58 6 -34
63 9 22 20 49 25 62 5 12 10 22 13 22 2 0 14 -28 25 -62z"/>
<path d="M1100 1649 l0 -190 38 3 37 3 3 78 c2 42 7 77 12 77 5 0 21 -22 34
-48 13 -27 38 -63 54 -80 25 -27 37 -32 75 -32 56 0 67 13 29 35 -16 10 -45
43 -65 75 l-36 58 30 28 c34 33 46 83 29 125 -19 45 -56 59 -155 59 l-85 0 0
-191z m154 129 c34 -48 14 -103 -41 -114 l-33 -6 0 71 0 71 29 0 c20 0 35 -8
45 -22z"/>
<path d="M1551 1758 c16 -46 48 -131 71 -190 40 -107 41 -108 73 -108 48 0 42
-11 131 239 24 68 44 128 44 133 0 5 -10 8 -22 6 -18 -2 -30 -25 -70 -138 -27
-74 -51 -142 -54 -150 -8 -22 -18 -1 -55 110 -18 52 -40 114 -50 138 -17 39
-21 42 -58 42 l-40 0 30 -82z"/>
<path d="M2032 1653 l3 -188 36 -3 c28 -2 37 1 40 15 2 10 3 96 1 191 l-3 172
-40 0 -39 0 2 -187z"/>
<path d="M2312 1653 c3 -180 4 -188 23 -188 19 0 20 8 25 128 l5 127 130 -130
c72 -73 137 -129 145 -128 13 3 15 33 18 191 l2 187 -25 0 -25 0 0 -120 c0
-66 -3 -120 -7 -120 -5 1 -62 55 -128 120 -82 82 -127 120 -143 120 l-22 0 2
-187z"/>
<path d="M3080 1829 c-90 -36 -132 -122 -112 -229 21 -113 69 -147 196 -137
39 3 83 10 99 16 26 10 27 13 27 86 l0 75 -80 0 c-61 0 -80 -3 -80 -14 0 -8
16 -16 41 -20 l40 -6 -3 -48 c-3 -47 -3 -47 -42 -50 -86 -7 -113 22 -117 124
-4 99 0 123 22 145 20 20 29 21 105 15 77 -6 83 -5 89 14 3 11 3 24 0 30 -8
13 -152 12 -185 -1z"/>
<path d="M3962 1653 l3 -188 104 -3 c101 -3 120 2 121 30 0 4 -33 8 -72 10
l-73 3 -3 168 -2 167 -40 0 -40 0 2 -187z"/>
<path d="M4360 1650 l0 -190 104 0 c101 0 116 5 116 36 0 2 -31 4 -69 4 l-68
0 -7 31 c-3 17 -6 94 -6 170 l0 139 -35 0 -35 0 0 -190z"/>
<path d="M4750 1650 l0 -191 112 3 c98 3 113 5 116 21 3 15 -6 17 -72 17 l-76
0 0 70 0 70 60 0 c53 0 60 2 60 20 0 18 -7 20 -60 20 l-60 0 0 60 0 60 64 0
c46 0 65 4 69 14 3 8 3 17 0 20 -4 3 -53 6 -110 6 l-103 0 0 -190z"/>
<path d="M5157 1823 c-2 -10 -4 -94 -3 -188 l1 -170 38 -3 c42 -4 40 -6 41 87
1 37 6 66 12 68 6 2 19 -15 29 -37 10 -22 35 -58 55 -80 33 -36 42 -40 83 -40
35 0 47 4 47 15 0 8 -6 15 -14 15 -15 0 -60 53 -91 106 l-18 32 32 28 c27 24
33 37 34 77 2 43 -2 52 -31 78 -31 27 -37 29 -121 29 -77 0 -90 -2 -94 -17z
m144 -33 c14 -8 19 -21 19 -55 0 -48 -24 -75 -67 -75 -22 0 -23 4 -23 70 0 68
1 70 26 70 14 0 34 -5 45 -10z"/>
<path d="M5570 1837 c0 -1 26 -50 57 -107 52 -96 57 -112 62 -185 l6 -80 35 0
35 0 5 80 c5 74 9 88 63 188 57 106 57 107 32 107 -22 0 -31 -12 -67 -85 -23
-47 -46 -85 -51 -85 -4 0 -26 38 -49 85 l-41 85 -43 0 c-24 0 -44 -1 -44 -3z"/>
</g>
</svg>
