<svg  stroke="white" width="673" height="602" viewBox="0 0 673 602" fill="none" xmlns="http://www.w3.org/2000/svg">
<path   stroke="white" fill-rule="evenodd" clip-rule="evenodd" d="M318.214 3.7314C316.319 5.78418 314.073 8.80612 313.221 10.4479C312.371 12.0898 310.657 15.2241 309.414 17.4132C308.172 19.6023 305.632 24.08 303.772 27.3636C301.911 30.6473 299.356 35.125 298.095 37.314C296.834 39.5031 295.572 41.8544 295.29 42.538C294.098 45.4306 293.637 46.3729 292.49 48.2595C291.824 49.354 289.706 52.9362 287.782 56.2198C285.858 59.5035 283.742 63.0856 283.078 64.1802C282.415 65.2747 281.451 67.0658 280.937 68.1603C279.756 70.6748 269.151 89.5458 267.796 91.5438C267.238 92.3647 266.529 93.708 266.217 94.5289C265.906 95.3498 265.234 96.6931 264.722 97.514C264.211 98.335 263.333 100.072 262.771 101.376C262.209 102.678 260.885 104.954 259.827 106.432C258.77 107.91 256.947 111.546 255.776 114.511C254.605 117.477 252.445 121.466 250.977 123.376C249.509 125.286 247.781 127.843 247.138 129.059C246.494 130.275 245.3 132.518 244.483 134.044C243.667 135.569 242.239 138.962 241.308 141.583C240.379 144.205 238.562 147.598 237.273 149.125C233.381 153.731 227.823 162.545 227.793 164.159C227.778 164.993 226.429 167.434 224.795 169.583C223.161 171.733 221.825 173.852 221.825 174.292C221.825 174.732 220.084 177.924 217.956 181.386C215.828 184.848 213.752 188.774 213.341 190.111C212.93 191.447 212.012 193.212 211.298 194.033C209.653 195.928 198.84 214.932 198.84 215.93C198.84 216.34 198.166 217.232 197.341 217.914C196.517 218.596 195.842 219.956 195.842 220.938C195.842 221.92 195.443 222.872 194.954 223.055C194.465 223.238 191.842 227.641 189.124 232.84C186.405 238.039 182.723 244.755 180.94 247.765C176.472 255.312 176.413 255.415 172.554 262.691C170.666 266.248 168.176 270.726 167.021 272.641C165.867 274.557 164.234 277.467 163.393 279.109C162.552 280.751 160.502 284.333 158.839 287.069C157.174 289.806 155.364 292.94 154.816 294.035C154.269 295.129 152.277 298.711 150.391 301.995C148.504 305.279 146.476 309.045 145.882 310.364C144.945 312.448 135.49 329.12 132.853 333.339C132.339 334.16 131.014 336.707 129.905 339C128.798 341.293 127.441 343.446 126.89 343.785C126.339 344.124 125.888 345.27 125.888 346.333C125.888 347.396 125.482 348.264 124.987 348.264C124.491 348.264 123.589 349.495 122.983 351.001C122.376 352.505 120.758 355.71 119.387 358.122C118.016 360.534 116.894 362.926 116.894 363.438C116.894 363.949 115.971 365.558 114.842 367.013C111.18 371.734 107.9 377.177 107.9 378.536C107.9 379.265 107.225 380.419 106.401 381.101C105.576 381.782 104.902 383.18 104.902 384.207C104.902 385.235 104.482 386.076 103.969 386.076C103.457 386.076 102.723 387.083 102.34 388.315C101.956 389.546 100.852 391.673 99.8852 393.041C98.9188 394.409 96.7072 398.216 94.9714 401.499C93.2345 404.783 90.8771 409.037 89.7328 410.952C88.5876 412.868 86.0233 417.472 84.0346 421.183C78.6401 431.249 78.2473 431.92 77.0361 433.126C76.4225 433.737 75.9209 434.895 75.9209 435.7C75.9209 436.505 75.3043 437.871 74.5518 438.735C73.2456 440.233 70.5294 444.896 65.2349 454.734C63.9098 457.197 62.3987 459.637 61.8781 460.157C61.3564 460.677 60.9307 461.853 60.9307 462.772C60.9307 463.689 60.2951 464.966 59.5176 465.608C58.7411 466.25 57.1662 468.655 56.0199 470.954C53.9073 475.186 49.0385 484.043 41.0457 498.196C38.6283 502.476 36.014 507.201 35.2355 508.695C34.4581 510.19 33.4007 511.671 32.8861 511.988C32.3714 512.305 31.9497 513.178 31.9497 513.929C31.9497 514.679 31.0093 516.78 29.8611 518.597C23.1695 529.177 20.9569 532.836 20.9569 533.318C20.9569 533.615 21.8903 534.439 23.0315 535.149C24.6595 536.161 35.1776 536.425 71.7496 536.372L118.393 536.305L122.562 531.59C124.856 528.997 130.681 520.006 135.507 511.609C140.334 503.213 144.753 495.527 145.328 494.527C152.249 482.5 154.869 477.342 154.877 475.73C154.881 474.854 158.532 467.645 162.991 459.709C167.449 451.774 172.324 443.042 173.824 440.306C175.324 437.569 178.867 431.348 181.7 426.482C184.532 421.614 186.848 417.419 186.848 417.158C186.848 416.898 188.376 414.164 190.244 411.082C194.058 404.789 196.999 399.631 200.532 393.041C201.852 390.579 204.281 386.325 205.929 383.588C207.577 380.852 209.606 377.27 210.439 375.628C211.271 373.986 212.489 371.747 213.146 370.653C216.903 364.395 224.823 350.206 224.823 349.734C224.823 349.429 225.664 347.966 226.69 346.483C228.966 343.196 242.811 318.717 242.811 317.98C242.811 317.69 244.524 314.647 246.619 311.217C248.713 307.786 256.614 294.01 264.178 280.602C271.743 267.193 278.321 255.551 278.798 254.731C285.215 243.673 289.781 235.552 289.781 235.2C289.781 234.831 300.623 215.845 304.478 209.463C305.142 208.365 306.103 206.562 306.615 205.455C307.595 203.337 318.141 184.647 319.797 182.093C320.33 181.272 321.208 179.704 321.749 178.61C322.29 177.515 324.2 174.068 325.994 170.948C328.869 165.947 333.788 157.307 340.044 146.271C341.129 144.356 343.354 140.326 344.986 137.316C346.619 134.306 348.292 131.395 348.705 130.848C349.117 130.301 350.802 127.39 352.449 124.38C354.096 121.37 359.481 111.743 364.417 102.987C369.353 94.2304 373.654 86.3407 373.976 85.4551C374.298 84.5686 373.627 82.3297 372.484 80.4799C371.341 78.6292 367.583 71.5843 364.133 64.824C360.682 58.0627 357.202 51.7939 356.399 50.8934C354.969 49.2884 352.508 44.8933 343.498 27.8612C341.038 23.2093 337.781 17.1645 336.26 14.4281C334.739 11.6917 332.85 8.23297 332.064 6.7414C330.259 3.32244 326.074 0 323.573 0C322.519 0 320.108 1.67963 318.214 3.7314ZM397.018 132.7C395.962 133.91 394.089 136.898 392.857 139.342C391.625 141.784 390.202 144.455 389.695 145.276C388.508 147.199 375.391 171.281 368.07 184.977C366.783 187.384 365.731 189.871 365.731 190.503C365.731 191.134 364.432 193.418 362.843 195.578C360.372 198.939 356.872 204.99 351.072 215.924C348.743 220.317 349.271 222.303 355.569 232.84C356.714 234.755 358.735 238.337 360.061 240.8C361.386 243.263 365.002 249.701 368.097 255.107C371.193 260.513 373.726 265.066 373.726 265.224C373.726 265.382 375.749 268.92 378.223 273.085C380.696 277.25 382.72 280.879 382.72 281.148C382.72 281.417 383.875 283.458 385.287 285.685C386.699 287.912 391.701 296.523 396.403 304.82C401.105 313.118 405.862 321.473 406.973 323.388C408.084 325.304 410.068 328.981 411.38 331.56C412.692 334.138 414.201 336.515 414.732 336.842C417.028 338.255 415.186 340.622 407.454 346.193C393.026 356.586 390.315 358.598 385.718 362.316C383.244 364.317 380.288 366.234 379.148 366.574C378.009 366.915 376.21 367.971 375.151 368.922C374.092 369.875 369.628 373.078 365.231 376.042C360.834 379.006 354.313 383.763 350.741 386.612C347.168 389.461 342.671 392.583 340.747 393.549C338.824 394.514 335.611 396.586 333.608 398.153C331.605 399.72 329.725 401.002 329.432 401.002C329.137 401.002 326.267 402.681 323.054 404.733C313.645 410.742 313.334 410.933 311.802 411.644C310.998 412.018 306.051 415.364 300.809 419.082C295.568 422.798 289.798 426.856 287.987 428.098C286.176 429.339 282.514 432.035 279.849 434.087C277.185 436.14 274.661 437.818 274.24 437.818C273.82 437.818 271.186 439.527 268.387 441.614C265.589 443.702 262.349 446.053 261.188 446.838C249.169 454.973 237.815 463.259 237.815 463.896C237.815 464.329 237.345 464.684 236.771 464.684C235.758 464.684 218.093 476.844 208.677 484.022C206.117 485.973 203.578 487.57 203.036 487.57C202.494 487.57 200.605 488.914 198.84 490.555C197.075 492.197 195.423 493.54 195.167 493.54C194.744 493.54 187.298 498.472 183.96 500.962C183.197 501.532 181.173 503.35 179.463 505C177.754 506.651 173.554 510.181 170.13 512.842C165.123 516.735 163.776 518.388 163.251 521.283C162.891 523.264 161.966 526.124 161.196 527.639C159.964 530.063 159.986 530.465 161.379 530.998C163.152 531.675 186.69 526.072 191.345 523.865C194.267 522.479 198.719 521.254 207.793 519.34C210.244 518.822 212.695 517.955 213.24 517.413C213.784 516.87 215.174 516.426 216.327 516.426C217.48 516.426 222.224 515.092 226.87 513.461C231.516 511.83 235.923 510.487 236.664 510.476C237.406 510.465 239.43 509.858 241.162 509.128C247.196 506.581 251.327 505.228 254.519 504.754C256.286 504.491 258.252 503.652 258.888 502.889C259.525 502.126 260.784 501.501 261.686 501.501C262.589 501.501 265.006 500.605 267.057 499.511C269.108 498.416 271.636 497.521 272.674 497.521C273.712 497.521 275.85 496.852 277.425 496.034C278.999 495.217 281.209 494.545 282.336 494.541C283.463 494.538 284.812 494.149 285.334 493.678C285.856 493.206 288.082 492.351 290.28 491.779C292.479 491.206 295.627 490.261 297.276 489.679C298.925 489.097 304.546 487.318 309.768 485.728C314.989 484.137 325.798 480.767 333.787 478.238C341.776 475.709 348.994 473.64 349.826 473.64C350.659 473.64 351.768 473.242 352.29 472.755C352.812 472.268 355.937 471.124 359.235 470.214C365.098 468.594 384.74 462.608 403.706 456.662C408.928 455.024 415.673 452.956 418.696 452.065C421.719 451.174 425.61 449.843 427.342 449.107C429.073 448.371 431.194 447.769 432.053 447.769C432.914 447.769 435.094 446.494 436.899 444.935C439.939 442.311 441.143 442.016 453.174 440.948C472.383 439.242 471.78 439.161 474.454 443.82C475.715 446.018 476.49 448.228 476.179 448.732C475.867 449.234 477.338 452.47 479.447 455.921C481.557 459.373 483.595 462.868 483.975 463.689C484.355 464.51 485.782 466.973 487.146 469.162C488.511 471.351 490.378 474.709 491.296 476.625C492.214 478.54 494.394 481.675 496.14 483.59C497.886 485.506 502.782 493.118 507.019 500.506C511.257 507.894 515.137 514.61 515.642 515.431C518.947 520.81 522.628 527.908 522.628 528.907C522.628 529.557 523.56 531.268 524.7 532.71L526.77 535.332H575.108C605.012 535.332 623.671 534.967 624.039 534.374C624.965 532.882 621.232 522.796 616.109 512.944C610.08 501.352 605.509 493.171 604.709 492.545C604.36 492.272 602.367 488.69 600.278 484.585C598.19 480.481 595.453 475.331 594.196 473.142C587.492 461.47 586.044 458.874 584.208 455.231C583.103 453.042 581.904 451.027 581.543 450.754C581.182 450.48 580.069 448.465 579.071 446.276C578.074 444.087 576.713 441.624 576.047 440.803C575.381 439.982 573.182 436.176 571.16 432.345C563.893 418.577 561.376 414.388 558.605 411.45C555.886 408.566 554.584 406.355 544.829 388.066C542.347 383.414 539.817 378.937 539.206 378.116C536.564 374.563 529.623 361.114 529.623 359.545C529.623 358.799 529.207 357.41 528.697 356.46C528.187 355.509 527.507 354.061 527.185 353.24C526.862 352.419 525.241 349.508 523.581 346.772C521.921 344.036 519.791 340.23 518.847 338.314C517.904 336.399 516.795 334.682 516.382 334.5C515.969 334.317 515.633 333.581 515.633 332.863C515.633 332.146 514.281 330.118 512.627 328.356C510.974 326.593 507.071 320.613 503.955 315.066C500.839 309.519 497.41 303.413 496.332 301.498C495.256 299.582 493.151 295.776 491.655 293.04C490.159 290.303 486.55 283.811 483.635 278.612C480.72 273.412 476.763 266.248 474.842 262.691C472.922 259.134 470.52 255.035 469.507 253.582C468.494 252.13 467.664 250.694 467.664 250.391C467.664 249.919 457.276 231.145 454.649 226.869C454.144 226.049 450.336 219.108 446.187 211.446C442.038 203.784 438.227 196.844 437.72 196.023C434.867 191.414 420.795 166.544 419.702 164.182C418.313 161.175 412.232 150.349 405.449 138.809C404.483 137.166 403.185 134.84 402.565 133.639C400.936 130.485 399.208 130.192 397.018 132.7ZM20.7231 552.959C17.5781 553.434 17.5561 553.475 9.48643 574.139C6.38646 582.074 2.97769 590.482 1.91039 592.823C-0.786841 598.739 -0.641942 601.005 2.43404 601.005C5.20922 601.005 6.41243 599.242 8.56802 592.014C9.3645 589.344 10.4308 586.904 10.9375 586.593C11.4451 586.28 15.5494 585.926 20.0585 585.804L28.2581 585.582L31.442 593.045L34.6249 600.507L38.9191 600.82C41.2816 600.992 43.6041 600.744 44.0797 600.271C44.5684 599.784 41.1317 589.131 36.1989 575.842C26.7781 550.458 27.7514 551.897 20.7231 552.959ZM385.303 553.095C381.975 553.832 380.468 556.198 376.332 567.174C374.785 571.278 372.007 578.232 370.158 582.628C366.392 591.578 363.732 598.827 363.732 600.135C363.732 600.614 364.846 601.005 366.208 601.005C369.113 601.005 371.027 598.407 372.808 592.05C373.498 589.587 374.363 587.22 374.731 586.789C375.099 586.358 379.27 585.821 384.002 585.594L392.604 585.183L395.57 592.846L398.536 600.507L403.619 600.808C407.814 601.057 408.703 600.82 408.703 599.454C408.703 598.004 406.09 590.935 399.715 575.134C398.72 572.671 397.45 569.089 396.892 567.174C392.771 553.034 391.661 551.685 385.303 553.095ZM64.9281 577.179V601.114L69.675 600.811L74.4219 600.507L74.7077 590.806C75.0424 579.448 76.6494 577.971 80.1171 585.831C83.433 593.348 87.8571 599.092 91.4957 600.607C95.2702 602.177 100.706 602.41 102.799 601.091C104.442 600.055 103.565 597.025 101.622 597.025C99.6653 597.025 95.4331 592.303 91.3747 585.593L87.8281 579.728L90.8941 577.339C96.3595 573.08 98.2682 565.716 95.3591 560.115C92.484 554.577 88.7774 553.251 76.1707 553.247L64.9281 553.243V577.179ZM118.908 553.938C118.916 554.376 122.09 563.243 125.961 573.641C129.832 584.039 133.69 594.451 134.534 596.776C136.006 600.832 136.239 601.004 140.223 600.99C142.507 600.981 144.948 600.613 145.646 600.172C147.091 599.259 149.176 594.065 155.497 575.631C157.936 568.517 160.592 561.285 161.398 559.56C163.55 554.956 163.28 553.243 160.4 553.243C157.368 553.243 156.979 553.954 151.278 569.881C148.776 576.875 146.032 584.535 145.181 586.904C144.24 589.527 143.275 590.854 142.715 590.296C141.771 589.356 137.844 579.114 135.376 571.154C134.612 568.691 132.934 563.766 131.647 560.208L129.307 553.74L124.099 553.44C121.236 553.274 118.9 553.498 118.908 553.938ZM183.563 553.861C182.559 554.861 182.702 598.235 183.714 599.826C184.253 600.672 186.104 601.023 188.946 600.821L193.344 600.507V577.124V553.74L188.81 553.446C186.316 553.284 183.955 553.471 183.563 553.861ZM219.059 576.862C219.31 598.964 219.446 600.504 221.182 600.837C222.202 601.032 223.48 600.75 224.022 600.211C224.593 599.642 224.952 592.907 224.878 584.143C224.757 569.921 224.852 569.113 226.535 570.066C227.518 570.622 235.047 577.811 243.266 586.041C251.486 594.271 259.003 601.005 259.97 601.005C260.938 601.005 262.131 600.221 262.621 599.264C263.113 598.306 263.295 587.559 263.026 575.383L262.538 553.243H259.695H256.853L256.577 568.835L256.303 584.427L240.176 568.835C227.654 556.729 223.462 553.243 221.42 553.243H218.791L219.059 576.862ZM314.452 555.753C305.879 560.138 302.001 566.623 301.85 576.826C301.731 584.833 303.613 591.8 306.899 595.527C309.997 599.041 316.988 602 322.187 602C326.879 602 340.903 599.129 342.447 597.854C343.464 597.013 343.743 594.399 343.531 587.669L343.246 578.617L333.002 578.333C323.457 578.068 322.759 578.18 322.759 579.967C322.759 581.469 323.785 582.07 327.506 582.747L332.253 583.611V589.572V595.532L325.588 595.825C319.402 596.096 318.739 595.918 316.345 593.348C314.926 591.825 313.43 589.007 313.02 587.085C311.871 581.701 312.258 566.941 313.612 564.447C315.774 560.47 320.363 558.888 327.699 559.591C331.302 559.937 335.251 560.489 336.472 560.82C338.192 561.286 338.952 560.851 339.851 558.888C342.112 553.945 340.818 553.24 329.536 553.269C320.601 553.291 318.635 553.615 314.452 555.753ZM428.921 576.875L429.189 600.507L442.38 600.785C454.47 601.039 455.656 600.904 456.585 599.174C457.144 598.136 457.316 597.004 456.969 596.658C456.622 596.312 452.643 596.03 448.127 596.03C440.456 596.03 439.876 595.882 439.313 593.791C438.982 592.56 438.704 582.932 438.697 572.398L438.683 553.243H433.668H428.654L428.921 576.875ZM478.889 576.875L479.157 600.507H492.648C505.878 600.507 506.145 600.464 506.459 598.269C506.767 596.098 506.519 596.03 498.33 596.03C490.415 596.03 489.845 595.888 489.28 593.791C488.949 592.56 488.671 582.932 488.664 572.398L488.65 553.243H483.636H478.621L478.889 576.875ZM528.624 577.151V601.06L542.865 600.783C556.701 600.515 557.114 600.445 557.42 598.306C557.722 596.188 557.388 596.095 548.426 595.819L539.117 595.532V587.074V578.617L546.612 578.119C553.446 577.665 554.135 577.424 554.427 575.383C554.735 573.219 554.473 573.144 546.682 573.144H538.618V565.681V558.218H546.995C554.449 558.218 555.43 558.005 555.881 556.286C556.16 555.223 556.137 554.104 555.831 553.798C555.524 553.493 549.278 553.243 541.948 553.243H528.624V577.151ZM580.076 555.482C579.774 556.713 579.653 567.348 579.808 579.114L580.09 600.507H585.087H590.084L590.37 590.806C590.701 579.569 591.904 578.416 595.554 585.831C601.8 598.514 607.381 602.88 615.588 601.498C620.412 600.688 620.66 599.063 616.317 596.722C613.183 595.034 610.567 591.799 605.851 583.779L603.621 579.986L607.449 576.316C614.191 569.855 613.676 559.686 606.383 555.259C603.585 553.559 601.345 553.25 591.852 553.247C581.041 553.243 580.608 553.326 580.076 555.482ZM633.555 554.116C633.555 555.006 644.679 576.823 647.171 580.821C648.074 582.268 648.545 586.127 648.545 592.07V601.114L653.292 600.811L658.039 600.507L658.555 590.557C659.065 580.702 659.127 580.501 664.962 569.661C668.202 563.641 671.453 557.596 672.187 556.228C673.4 553.964 673.334 553.711 671.453 553.413C667.825 552.838 666.913 553.862 661.485 564.602C658.558 570.395 655.894 575.134 655.566 575.134C655.237 575.134 652.528 570.208 649.545 564.188L644.121 553.243H638.838C635.933 553.243 633.555 553.636 633.555 554.116ZM83.8767 560.396C86.4799 563.178 86.6368 570.053 84.1655 573.064C83.2031 574.235 80.7307 575.463 78.6691 575.792L74.9215 576.39V567.304V558.218H78.3803C80.6518 558.218 82.5385 558.965 83.8767 560.396ZM599.578 560.208C602.166 562.785 602.307 570.042 599.827 573.064C598.866 574.235 596.393 575.463 594.331 575.792L590.583 576.39V567.304V558.218H594.081C596.247 558.218 598.34 558.976 599.578 560.208ZM23.7561 570.89C27.2448 580.824 27.0649 581.238 19.4579 580.811C15.2267 580.573 14.4142 580.205 14.1514 578.405C13.9815 577.236 14.736 574.328 15.8273 571.941C16.9195 569.555 18.1188 566.386 18.4935 564.9C18.8683 563.414 19.5188 562.198 19.9396 562.198C20.3593 562.198 22.0772 566.11 23.7561 570.89ZM388.168 571.505C389.639 575.803 390.586 579.574 390.273 579.886C389.169 580.985 378.508 580.709 378.069 579.571C377.198 577.312 383.437 561.488 384.674 562.813C385.125 563.296 386.697 567.207 388.168 571.505Z" fill="black"/>
</svg>
