<svg id="visual" viewBox="0 0 1600 450" width="1600" height="450" xmlns="http://www.w3.org/2000/svg" xmlns:xlink="http://www.w3.org/1999/xlink" version="1.1"><rect x="0" y="0" width="1600" height="450" fill="#fff"></rect><path d="M0 362L66.7 346.2C133.3 330.3 266.7 298.7 400 290C533.3 281.3 666.7 295.7 800 312.2C933.3 328.7 1066.7 347.3 1200 353.5C1333.3 359.7 1466.7 353.3 1533.3 350.2L1600 347L1600 451L1533.3 451C1466.7 451 1333.3 451 1200 451C1066.7 451 933.3 451 800 451C666.7 451 533.3 451 400 451C266.7 451 133.3 451 66.7 451L0 451Z" fill="#22a6b3" stroke-linecap="round" stroke-linejoin="miter"></path></svg>