<svg id="visual" viewBox="0 0 950 550" width="950" height="550" xmlns="http://www.w3.org/2000/svg" xmlns:xlink="http://www.w3.org/1999/xlink" version="1.1"><rect x="0" y="0" width="950" height="550" fill="#fff"></rect><path d="M0 217L39.7 231.3C79.3 245.7 158.7 274.3 237.8 276.8C317 279.3 396 255.7 475.2 239.7C554.3 223.7 633.7 215.3 712.8 219.8C792 224.3 871 241.7 910.5 250.3L950 259L950 551L910.5 551C871 551 792 551 712.8 551C633.7 551 554.3 551 475.2 551C396 551 317 551 237.8 551C158.7 551 79.3 551 39.7 551L0 551Z" fill="#22a6b3" stroke-linecap="round" stroke-linejoin="miter"></path></svg>