<svg id="visual" viewBox="0 0 950 650" width="950" height="650" xmlns="http://www.w3.org/2000/svg" xmlns:xlink="http://www.w3.org/1999/xlink" version="1.1"><rect x="0" y="0" width="950" height="650" fill="#fff"></rect><path d="M0 257L39.7 274C79.3 291 158.7 325 237.8 328C317 331 396 303 475.2 284C554.3 265 633.7 255 712.8 260.2C792 265.3 871 285.7 910.5 295.8L950 306L950 651L910.5 651C871 651 792 651 712.8 651C633.7 651 554.3 651 475.2 651C396 651 317 651 237.8 651C158.7 651 79.3 651 39.7 651L0 651Z" fill="#22a6b3" stroke-linecap="round" stroke-linejoin="miter"></path></svg>