<?xml version="1.0" standalone="no"?>
<!DOCTYPE svg PUBLIC "-//W3C//DTD SVG 20010904//EN"
 "http://www.w3.org/TR/2001/REC-SVG-20010904/DTD/svg10.dtd">
<svg version="1.0" xmlns="http://www.w3.org/2000/svg"
 width="300.000000pt" height="300.000000pt" viewBox="0 0 300.000000 300.000000"
 preserveAspectRatio="xMidYMid meet">
<metadata>
Created by potrace 1.10, written by Peter Selinger 2001-2011
</metadata>
<g transform="translate(0.000000,300.000000) scale(0.100000,-0.100000)"
fill="#000000" stroke="none">
<path d="M1344 2713 c-60 -108 -117 -210 -126 -227 -10 -17 -29 -53 -43 -81
-14 -27 -37 -68 -49 -90 -34 -57 -584 -1044 -673 -1207 -42 -75 -84 -146 -95
-157 -13 -14 -15 -21 -6 -22 57 -4 359 0 367 6 6 3 23 30 38 58 14 29 72 133
129 233 56 100 122 217 147 260 87 156 329 587 476 848 l150 266 -58 102 c-32
57 -70 127 -85 156 -17 34 -33 52 -44 52 -14 0 -48 -54 -128 -197z m190 29
c75 -133 77 -141 57 -178 -35 -68 -60 -113 -118 -214 -33 -58 -136 -240 -228
-405 -203 -363 -187 -334 -268 -477 -37 -64 -67 -121 -67 -127 0 -5 -4 -11 -8
-13 -5 -1 -41 -66 -82 -143 -73 -141 -105 -194 -125 -207 -14 -10 -265 -10
-265 0 0 4 118 219 261 478 144 258 264 476 267 484 3 8 10 22 17 30 7 8 31
51 55 95 23 44 73 133 111 197 38 64 69 120 69 123 0 4 17 37 39 73 21 37 54
96 73 132 109 202 138 250 147 250 5 0 34 -44 65 -98z"/>
<path d="M1696 2341 c-46 -90 -69 -132 -112 -206 l-23 -40 125 -218 c68 -120
124 -221 124 -225 0 -4 -22 -21 -48 -39 -26 -18 -72 -49 -102 -71 -30 -21
-103 -72 -162 -113 -400 -276 -616 -436 -626 -461 -6 -16 -7 -28 -3 -28 4 0
95 29 202 64 207 68 781 246 794 246 5 0 16 6 24 14 9 7 42 16 73 19 l56 5 83
-146 c46 -81 90 -162 98 -179 l15 -33 183 0 c101 0 183 2 183 5 0 6 -246 453
-374 680 -35 61 -150 269 -257 462 -107 194 -197 353 -201 353 -4 0 -27 -40
-52 -89z m113 -93 c28 -51 58 -104 66 -118 18 -32 141 -254 190 -345 21 -38
48 -83 60 -100 12 -16 44 -75 72 -130 27 -55 68 -130 90 -165 72 -116 212
-368 219 -394 l6 -26 -130 0 c-125 0 -132 1 -147 23 -25 36 -122 194 -147 240
-42 78 -54 87 -123 87 -33 0 -65 -4 -71 -9 -5 -5 -97 -37 -204 -71 -107 -34
-299 -95 -425 -136 -232 -75 -279 -86 -253 -61 7 7 24 20 38 29 28 19 254 179
285 202 11 8 81 55 155 104 311 208 350 239 350 281 0 15 -49 114 -110 221
-60 107 -110 203 -110 213 0 20 12 47 78 165 25 45 49 82 52 82 4 0 30 -42 59
-92z"/>
<path d="M2745 1949 c-113 -48 -286 -120 -455 -191 -41 -18 -82 -38 -90 -45
-33 -30 35 -11 172 48 79 33 177 74 218 91 41 16 93 38 115 47 22 10 47 21 55
24 8 3 31 12 51 21 l36 15 -8 -47 c-10 -50 -15 -55 -99 -90 -30 -13 -73 -32
-96 -42 -22 -10 -102 -44 -178 -74 -165 -68 -216 -93 -216 -107 0 -14 -17 -20
316 119 l282 117 20 65 c11 36 24 73 27 83 11 28 -19 21 -150 -34z"/>
<path d="M2615 1659 c-99 -43 -192 -83 -206 -88 -22 -7 -29 -20 -43 -75 -20
-82 -21 -92 -2 -77 7 6 19 31 26 55 15 55 39 77 110 106 64 26 72 29 167 69
85 37 95 38 90 9 -5 -32 -78 -270 -142 -463 -35 -106 -55 -208 -37 -190 5 6
51 141 102 300 95 300 123 388 135 418 5 11 3 17 -6 16 -8 0 -95 -36 -194 -80z"/>
<path d="M1123 1267 c-216 -90 -254 -109 -236 -120 14 -9 292 112 428 185 86
47 38 31 -192 -65z"/>
<path d="M1737 1175 c-131 -35 -241 -66 -244 -69 -7 -7 40 1 99 15 20 5 40 9
45 8 4 -1 15 0 23 4 8 3 86 22 172 42 86 20 162 43 169 51 19 23 -8 18 -264
-51z"/>
<path d="M1989 1126 c-2 -2 -31 -7 -64 -10 -63 -7 -77 -8 -208 -26 -45 -7 -95
-14 -112 -16 -237 -30 -557 -90 -498 -93 12 -1 86 8 165 19 79 11 260 36 403
55 143 20 295 41 338 47 51 7 74 14 65 19 -13 9 -81 12 -89 5z"/>
<path d="M825 1016 c-26 -11 -66 -46 -52 -46 15 0 97 42 97 50 0 13 -9 12 -45
-4z"/>
<path d="M352 862 c-10 -7 -82 -162 -82 -178 0 -2 7 -4 15 -4 9 0 18 12 22 30
5 27 9 30 42 30 31 0 38 -4 48 -30 6 -16 18 -30 27 -30 21 0 21 -4 -15 100
-32 92 -35 96 -57 82z m16 -69 c10 -31 10 -33 -14 -33 -27 0 -29 6 -14 46 12
31 13 30 28 -13z"/>
<path d="M539 863 l-27 -4 3 -87 c2 -71 5 -88 19 -90 13 -3 16 5 16 37 0 23 3
41 8 41 4 0 16 -17 27 -38 15 -27 28 -38 48 -40 15 -2 27 1 27 7 0 6 -4 11 -9
11 -5 0 -19 14 -31 31 -20 28 -21 31 -6 48 42 47 -1 95 -75 84z m44 -28 c20
-19 10 -55 -14 -55 -14 0 -19 7 -19 28 0 25 7 42 16 42 1 0 9 -7 17 -15z"/>
<path d="M710 868 c0 -2 16 -43 34 -93 48 -127 61 -126 111 13 28 79 29 85 14
80 -7 -2 -24 -37 -40 -78 -15 -41 -28 -73 -29 -70 -1 3 -11 37 -23 75 -18 56
-27 71 -45 73 -12 2 -22 2 -22 0z"/>
<path d="M950 775 c0 -88 1 -95 20 -95 19 0 20 7 20 95 0 88 -1 95 -20 95 -19
0 -20 -7 -20 -95z"/>
<path d="M1087 864 c-4 -4 -7 -47 -7 -96 0 -75 2 -88 16 -88 14 0 16 9 11 66
l-5 66 67 -66 c36 -36 70 -66 74 -66 4 0 7 43 7 95 0 81 -2 95 -16 95 -14 0
-16 -10 -12 -60 2 -33 2 -60 -1 -60 -3 0 -33 27 -66 60 -34 33 -64 57 -68 54z"/>
<path d="M1443 855 c-38 -16 -53 -42 -53 -90 0 -66 53 -97 130 -76 21 6 25 13
25 44 0 37 0 37 -42 37 -49 0 -54 -6 -18 -20 28 -11 33 -37 9 -47 -8 -3 -26
-1 -40 5 -21 10 -24 18 -24 67 0 50 2 55 25 61 14 3 36 3 49 0 16 -4 26 -1 29
8 4 9 -3 16 -16 20 -30 8 -38 7 -74 -9z"/>
<path d="M1694 862 c-6 -4 -26 -41 -43 -82 -18 -41 -35 -81 -38 -87 -3 -7 2
-13 10 -13 8 0 20 14 26 30 8 26 15 30 45 30 29 0 36 -4 45 -31 7 -21 16 -29
28 -27 21 5 22 0 -16 103 -29 80 -37 91 -57 77z m20 -79 c6 -20 4 -23 -18 -23
-30 0 -29 -2 -15 40 12 34 19 30 33 -17z"/>
<path d="M1860 775 l0 -96 50 3 c28 2 50 8 50 13 0 9 -8 11 -54 14 -16 1 -18
9 -15 78 4 68 2 78 -13 81 -16 3 -18 -6 -18 -93z"/>
<path d="M2040 774 l0 -95 52 3 c30 2 53 8 56 16 3 9 -6 11 -32 8 l-36 -4 0
84 c0 77 -2 84 -20 84 -19 0 -20 -7 -20 -96z"/>
<path d="M2226 860 c-1 -3 -1 -43 -1 -90 l2 -85 51 0 c29 0 52 5 52 10 0 6 -8
10 -18 11 -50 3 -52 4 -52 34 0 27 3 30 30 30 17 0 30 5 30 10 0 6 -14 10 -31
10 -27 0 -30 3 -27 28 3 24 7 27 36 24 24 -3 32 0 32 12 0 13 -10 16 -51 14
-28 -1 -52 -5 -53 -8z"/>
<path d="M2440 863 c-25 -4 -25 -5 -23 -91 1 -77 3 -87 20 -87 15 0 17 7 15
38 -4 47 8 47 32 2 17 -32 58 -56 72 -43 2 3 -9 20 -26 38 -34 36 -36 45 -15
54 9 3 15 18 15 40 0 29 -4 36 -31 45 -18 6 -32 10 -33 10 -1 -1 -12 -4 -26
-6z m60 -43 c0 -22 -14 -40 -31 -40 -14 0 -19 7 -19 28 0 16 3 32 6 35 8 8 44
-11 44 -23z"/>
<path d="M2610 863 c0 -3 14 -31 31 -61 20 -36 29 -64 27 -85 -2 -26 1 -32 17
-32 16 0 19 6 17 32 -2 21 7 49 27 86 33 58 36 67 21 67 -5 0 -20 -21 -33 -47
l-24 -47 -21 47 c-15 34 -27 47 -41 47 -12 0 -21 -3 -21 -7z"/>
<path d="M1313 758 c-47 -33 -49 -52 -3 -22 22 15 40 31 40 35 0 12 -1 12 -37
-13z"/>
<path d="M1950 758 c-13 -10 -20 -21 -17 -24 6 -7 67 27 67 36 0 13 -28 6 -50
-12z"/>
<path d="M2136 759 c-15 -12 -25 -23 -22 -26 7 -7 66 26 66 37 0 16 -15 12
-44 -11z"/>
<path d="M2811 760 c-52 -24 -62 -25 -55 -5 4 8 2 15 -4 15 -9 0 -25 -41 -18
-47 5 -5 119 38 131 48 15 15 -7 10 -54 -11z"/>
<path d="M668 749 c-10 -10 -14 -19 -9 -19 20 0 61 20 61 30 0 17 -34 10 -52
-11z"/>
<path d="M1034 746 c-38 -32 -27 -42 11 -11 17 13 27 26 24 30 -4 3 -20 -5
-35 -19z"/>
<path d="M2315 750 c-18 -20 -17 -20 26 -19 34 2 37 3 14 6 l-30 5 25 14 c23
12 24 13 4 14 -11 0 -29 -9 -39 -20z"/>
<path d="M2568 749 c-10 -10 -14 -19 -9 -19 20 0 61 20 61 30 0 17 -34 10 -52
-11z"/>
</g>
</svg>
